<svg width="512" height="512" viewBox="0 0 512 512" fill="none" xmlns="http://www.w3.org/2000/svg">
  <!-- Background com gradiente premium -->
  <rect width="512" height="512" rx="120" fill="url(#gradient-bg)"/>
  
  <!-- Ilha da Madeira estilizada (forma minimalista) -->
  <path d="M256 140C200 140 160 180 140 220C120 260 130 300 150 320C170 340 200 350 230 360C260 370 290 370 320 360C350 350 380 340 400 320C420 300 430 260 410 220C390 180 312 140 256 140Z" 
        fill="white" 
        opacity="0.95"/>
  
  <!-- Ondas do mar (3 camadas para profundidade) -->
  <path d="M100 380C150 370 200 390 250 380C300 370 350 390 400 380" 
        stroke="white" 
        stroke-width="8" 
        stroke-linecap="round" 
        opacity="0.6"/>
  <path d="M100 400C150 390 200 410 250 400C300 390 350 410 400 400" 
        stroke="white" 
        stroke-width="8" 
        stroke-linecap="round" 
        opacity="0.4"/>
  <path d="M100 420C150 410 200 430 250 420C300 410 350 430 400 420" 
        stroke="white" 
        stroke-width="8" 
        stroke-linecap="round" 
        opacity="0.2"/>
  
  <!-- Ponto de destaque (representando localização/mercado) -->
  <circle cx="256" cy="240" r="20" fill="#10B981"/>
  <circle cx="256" cy="240" r="12" fill="white"/>
  
  <!-- Gradiente de fundo -->
  <defs>
    <linearGradient id="gradient-bg" x1="0" y1="0" x2="512" y2="512" gradientUnits="userSpaceOnUse">
      <stop offset="0%" stop-color="#10B981"/>
      <stop offset="50%" stop-color="#14B8A6"/>
      <stop offset="100%" stop-color="#0D9488"/>
    </linearGradient>
  </defs>
</svg>
